<svg xmlns="http://www.w3.org/2000/svg" viewBox="0 0 205.08 205.08"><g id="Layer_1" data-name="Layer 1"><path d="M195.52,0H9.58A9.56,9.56,0,0,0,0,9.57V134.42a6.77,6.77,0,0,0,6.77,6.77h0a6.77,6.77,0,0,0,6.76-6.77V108.75a4.11,4.11,0,0,1,4.1-4.11H56.92a40,40,0,0,1,40,40v6.87a40,40,0,0,1-39.95,39.95H17.64a4.11,4.11,0,0,1-4.1-4.11V161.63a6.77,6.77,0,0,0-6.76-6.77h0A6.77,6.77,0,0,0,0,161.63v33.88a9.57,9.57,0,0,0,9.57,9.57H195.52a9.58,9.58,0,0,0,9.57-9.57V9.57A9.57,9.57,0,0,0,195.52,0Z" fill="#fff" /></g></svg>